# xmcd
#
# Track frame offsets:
#	150
#	15027
#	29633
#	48031
#	64228
#	81124
#	96275
#	109391
#	124124
#	142680
#	158354
#	170678
#	190196
#	207544
#	235401
#
# Disc length: 4547 seconds
#
# Revision: 3
# Processed by: cddbd v1.5.2PL0 Copyright (c) Steve Scherf et al.
# Submitted via: audiograbber 1.83.01
#
DISCID=c111c10f
DTITLE=Jill Johnson - Roots And Wings
DYEAR=2003
DGENRE=Country
TTITLE0=Can't Get Enough Of You
TTITLE1=God's Gift
TTITLE2=Breakfast In New York
TTITLE3=Nathalie
TTITLE4=A Woman Knows
TTITLE5=You Can't Love Me Too Much
TTITLE6=Good For You
TTITLE7=You're Still Here
TTITLE8=Hopelessly Devoted
TTITLE9=Roots and Wings
TTITLE10=It Ain't The End Of The World
TTITLE11=When I Found You
TTITLE12=Time Will Fly
TTITLE13=Desperado
TTITLE14=The Making Of Roots And Wings
EXTD=
EXTT0=
EXTT1=
EXTT2=
EXTT3=
EXTT4=
EXTT5=
EXTT6=
EXTT7=
EXTT8=
EXTT9=
EXTT10=
EXTT11=
EXTT12=
EXTT13=
EXTT14=
PLAYORDER=
